# xmcd CD database file
#
# Track frame offsets:
#	150
#	10365
#	20915
#	29503
#	38806
#	49421
#	60126
#	68148
#	77882
#	90478
#	99243
#	108208
#	118697
#	128164
#	137117
#	149209
#	161118
#	172933
#	184022
#	193916
#
# Disc length: 2723 seconds
#
# Revision: 0
# Processed by: cddbd v1.4PL0 Copyright (c) Steve Scherf et al.
# Submitted via: CDex 1.50
#
DISCID=1b0aa114
DTITLE=Various Artist - Rhythm and Blues Goes Rock 'n' Roll - Vol 2 - Disc 4
DYEAR=2002
DGENRE=Vintage R&B
TTITLE0=Chico Chism - Hot Tamales And Bar-B-Que
TTITLE1=Gabriel - Don't Stay Out All Night
TTITLE2=Larry Hanna - Good Lovin'
TTITLE3=Claude Robinson - Cotton Pickin' Mama
TTITLE4=Blanche Thomas - You Ain't So Such A Much
TTITLE5=The Devilles - Making Tracks
TTITLE6=Hi-Tones - Rock In The Groove
TTITLE7=Bill Matte - Parlez Vous
TTITLE8=H. Gillespie - My Daddy Told Me
TTITLE9=Teddy Reynolds - Louise
TTITLE10=Niteriders - Looking For My Baby
TTITLE11=John Greer - Honey Why
TTITLE12=Niteriders - Love Me Like Crazy
TTITLE13=Fran Harris - He's My Texas Baby
TTITLE14=Roland Mitchell - Irma Special
TTITLE15=Willie Mitchell - Lizzie Lou
TTITLE16=Paul Kimble - That Big Fat Mama
TTITLE17=Jimmie Newsome - I'm Afraid I Love You
TTITLE18=Shep Tingle - Let's Turn 'em On Tonight
TTITLE19=Monroe Chapman - Come Dance With Rudy
EXTD=YEAR: 2002
EXTT0=
EXTT1=
EXTT2=
EXTT3=
EXTT4=
EXTT5=
EXTT6=
EXTT7=
EXTT8=
EXTT9=
EXTT10=
EXTT11=
EXTT12=
EXTT13=
EXTT14=
EXTT15=
EXTT16=
EXTT17=
EXTT18=
EXTT19=
PLAYORDER=
